PathFileType	4	(X/Y/Z)	/Volumes/GoogleDrive/My Drive/Research/Stanford/Projects/Digital Athlete Project/Sprinting/Sprint Simulation/sprinter/subjects/JA1/experimental_data/TRC/run0350cms.trc
DataRate	CameraRate	NumFrames	NumMarkers	Units	OrigDataRate	OrigDataStartFrame	OrigNumFrames
250.000000	250.000000	5	53	mm	250.000000	105	836
Frame#	Time	C7			RSH			LSH			MAN			T7			LARM			LELB			LFOREARM			LWR			RARM			RELB			RFOREARM			RWR			RASI			LASI			SACR			P1			P2			P3			LTHLP			LTHLD			LTHAP			LTHAD			LLEPI			LPAT			LTIAP			LTIAD			LTILAT			LLMAL			LHEEL			LMFS			LMFL			LP1MT			LTOE			LP5MT			RTHLP			RTHLD			RTHAP			RTHAD			RLEPI			RPAT			RTIAP			RTIAD			RTILAT			RLMAL			RHEEL			RMFS			RMFL			RP1MT			RTOE			RP5MT			x52			x53			
		X1	Y1	Z1	X2	Y2	Z2	X3	Y3	Z3	X4	Y4	Z4	X5	Y5	Z5	X6	Y6	Z6	X7	Y7	Z7	X8	Y8	Z8	X9	Y9	Z9	X10	Y10	Z10	X11	Y11	Z11	X12	Y12	Z12	X13	Y13	Z13	X14	Y14	Z14	X15	Y15	Z15	X16	Y16	Z16	X17	Y17	Z17	X18	Y18	Z18	X19	Y19	Z19	X20	Y20	Z20	X21	Y21	Z21	X22	Y22	Z22	X23	Y23	Z23	X24	Y24	Z24	X25	Y25	Z25	X26	Y26	Z26	X27	Y27	Z27	X28	Y28	Z28	X29	Y29	Z29	X30	Y30	Z30	X31	Y31	Z31	X32	Y32	Z32	X33	Y33	Z33	X34	Y34	Z34	X35	Y35	Z35	X36	Y36	Z36	X37	Y37	Z37	X38	Y38	Z38	X39	Y39	Z39	X40	Y40	Z40	X41	Y41	Z41	X42	Y42	Z42	X43	Y43	Z43	X44	Y44	Z44	X45	Y45	Z45	X46	Y46	Z46	X47	Y47	Z47	X48	Y48	Z48	X49	Y49	Z49	X50	Y50	Z50	X51	Y51	Z51	X52	Y52	Z52	X53	Y53	Z53	
105	0.420000	-3998.651367	1599.408447	256.689301	-3943.708984	1589.964966	409.372070	-4008.616943	1592.510010	97.406342	-3860.428467	1508.004150	225.518097	-4062.885742	1412.392090	260.920837	-4135.604492	1467.162720	19.742285	-4238.496582	1371.180908	-4.329296	-4202.202148	1225.619751	-17.857931	-4180.395508	1091.570068	-10.365646	-3933.461182	1416.082153	513.793457	-3932.934814	1286.459595	566.588074	-3825.731689	1337.732788	495.573578	-3728.992920	1382.843140	422.059814	-3879.382813	1106.332642	336.230072	-3896.167236	1122.795776	125.162323	-4062.678223	1180.065796	245.410950	-4080.028809	1150.605225	192.888550	-4074.062988	1152.506592	299.906738	-4109.000000	1098.745239	247.310135	-3878.548584	847.419434	65.659302	-3813.808105	756.871765	85.021965	-3759.701904	914.781677	125.599525	-3707.128906	814.862671	135.256241	-3754.521973	654.938354	109.606720	-3664.029053	689.477234	165.316498	-3722.268555	486.253357	192.248795	-3736.230957	348.037109	203.114044	-3770.233154	413.762573	121.813255	-3776.883789	198.070648	163.362213	-3841.448486	175.671265	216.658066	-3671.040527	182.769257	212.326401	-3706.811279	153.606308	154.921112	-3618.632324	126.496086	249.592270	-3585.685303	134.161621	211.860519	-3649.991699	105.611923	131.221878	-4060.230713	864.644043	422.393311	-4098.156738	759.064087	403.008667	-3960.109863	798.749329	338.863739	-4009.619873	712.724304	323.186798	-4174.028320	631.049133	370.608673	-4097.276855	583.634460	319.929443	-4302.200195	455.180511	291.150146	-4396.236328	370.276367	277.040009	-4346.980469	481.819733	364.887909	-4506.492676	305.755035	328.872284	-4557.651855	351.700287	275.558746	-4460.184570	205.382172	284.612274	-4516.869141	225.048416	331.508026	-4480.736328	134.276398	233.374466	-4458.715820	114.497559	273.144745	-4528.719727	142.337982	348.608887	-4169.312012	1023.439209	-6.557692	-3674.893311	1408.070435	380.948334
106	0.424000	-3984.176758	1600.381714	256.517792	-3929.271973	1591.065063	409.089447	-3993.922852	1593.728638	97.275414	-3845.881836	1508.824585	225.209488	-4048.333252	1413.188232	260.462189	-4121.647461	1469.194946	20.019444	-4224.924316	1373.553589	-4.138104	-4188.490723	1227.841431	-17.462919	-4166.626465	1093.707031	-9.850505	-3919.152588	1416.960083	513.382751	-3918.654785	1287.324097	566.164856	-3811.928711	1339.333496	494.860443	-3715.729248	1385.357910	421.185883	-3864.297607	1107.574707	336.365631	-3881.114502	1123.570557	125.223801	-4047.897949	1180.633057	245.377335	-4064.986084	1151.127686	192.819366	-4059.157471	1153.261353	299.885101	-4094.068604	1099.330811	247.412170	-3864.945557	847.043274	65.824944	-3801.672119	755.590271	84.694321	-3746.023193	911.326965	126.773277	-3695.139160	810.826416	137.165909	-3742.640625	652.457397	109.862068	-3652.958008	687.299438	166.430115	-3706.937012	484.468353	192.950500	-3716.205322	345.871216	203.279083	-3751.079834	410.483124	121.599991	-3751.009277	194.454422	163.382278	-3815.575684	170.696655	215.676880	-3645.418213	182.190094	212.896942	-3679.943604	151.786758	155.340225	-3591.849609	127.517693	250.929153	-3558.772949	135.765076	213.361801	-3621.722656	105.151596	132.224670	-4044.837646	865.708984	422.188660	-4082.920166	760.330933	402.726654	-3944.887695	799.900269	338.500244	-3993.947754	713.898682	323.130798	-4159.100586	632.662415	369.941742	-4082.369873	583.909973	319.925659	-4290.001953	458.540253	291.032928	-4385.475098	375.450867	276.715210	-4334.921875	486.318359	364.347198	-4497.328613	313.382629	328.406891	-4547.885254	359.190002	274.245361	-4452.333008	211.809143	285.471558	-4508.750977	233.029541	332.072113	-4472.559082	140.489212	235.405380	-4450.941895	121.038589	275.489563	-4521.026367	150.488037	350.283905	-4155.514160	1025.533203	-5.981495	-3661.931152	1411.096313	379.984467
107	0.428000	-3969.352051	1601.095947	256.266510	-3914.638428	1591.916992	408.693237	-3979.130127	1594.766846	97.033539	-3831.475098	1509.786377	224.843994	-4034.002197	1413.815063	259.967682	-4107.414551	1470.973999	20.192438	-4210.922852	1375.687500	-4.007266	-4174.827148	1229.789429	-17.028845	-4153.033691	1095.768677	-9.317590	-3904.850342	1417.805786	512.893616	-3904.468750	1288.040161	565.724609	-3798.046387	1340.598022	494.341553	-3702.409424	1387.266846	420.363190	-3849.767822	1108.548706	336.047546	-3866.162109	1124.199341	125.457054	-4033.200684	1181.061401	245.161758	-4050.070557	1151.381714	192.756271	-4044.406738	1153.804688	299.866302	-4079.140381	1099.765869	247.524536	-3851.010010	846.581726	65.679604	-3789.270020	753.800598	84.361534	-3732.880127	907.699585	127.992363	-3683.754639	806.440918	139.166229	-3731.036621	649.687988	110.256699	-3641.900391	684.774414	167.469513	-3691.750977	482.614899	193.513550	-3696.341309	343.731445	203.801651	-3732.214111	407.289215	121.371284	-3726.095947	191.536209	162.819046	-3790.233887	166.071686	214.614487	-3620.599854	181.888184	213.407242	-3653.597412	149.743088	155.771011	-3565.930176	128.970139	252.486618	-3532.831543	137.649612	214.913910	-3594.377686	104.949364	133.587082	-4029.317627	866.565430	422.002136	-4067.314453	761.151550	402.434052	-3929.303711	800.830383	338.199677	-3978.185547	714.831238	322.692566	-4143.749023	633.930542	369.390411	-4067.188477	583.851440	319.712860	-4277.485840	461.963409	290.715942	-4375.313477	380.459259	277.106293	-4322.623535	490.924316	363.771790	-4487.867188	321.081146	327.867828	-4538.031250	366.697906	273.065155	-4443.034668	218.914093	286.702087	-4498.792969	241.131409	332.843781	-4463.998047	146.774063	237.665115	-4442.995117	127.374451	278.159332	-4513.014648	158.858154	352.170441	-4141.957031	1027.652588	-5.398344	-3648.926025	1413.365723	378.991882
108	0.432000	-3955.037842	1601.844116	255.981354	-3900.241211	1592.662720	408.444061	-3964.331299	1595.561401	96.810074	-3817.319580	1510.130249	224.571518	-4019.572754	1414.458252	259.452026	-4093.151855	1472.456787	20.241646	-4194.977051	1377.483032	-4.423862	-4160.871582	1231.381348	-16.826134	-4138.971680	1097.326904	-8.974539	-3890.735352	1418.249023	512.381775	-3890.433594	1288.569580	565.204590	-3784.346436	1341.391846	493.886230	-3688.929688	1388.585571	419.710754	-3834.770264	1109.667358	336.208527	-3851.146729	1124.726807	125.589378	-4018.298096	1181.372681	245.094574	-4035.145264	1151.494019	192.693283	-4029.358398	1154.197021	299.813538	-4064.020020	1099.903198	247.631882	-3836.941895	845.853821	65.083366	-3776.923096	751.670715	83.755142	-3720.051758	903.805359	129.071854	-3672.767090	802.087708	141.012527	-3719.167236	647.054077	110.406731	-3630.927979	681.852905	168.483124	-3676.604004	480.656403	193.964584	-3676.997070	341.883850	203.852402	-3713.938721	404.497559	121.168274	-3701.776123	188.916367	162.556610	-3765.714600	162.110718	213.633499	-3596.449707	181.783401	213.925507	-3628.223145	148.406311	156.397079	-3540.959717	130.133087	253.557602	-3507.626953	139.735291	216.598389	-3567.759277	104.950951	134.708084	-4013.540771	867.126953	421.786896	-4051.437744	761.665588	402.112610	-3913.349121	801.611938	337.951691	-3962.236084	715.407654	322.141663	-4128.093750	634.889526	368.665710	-4051.697021	583.487793	319.393036	-4264.834473	465.113556	290.400848	-4364.403320	385.877502	276.546478	-4309.796387	495.589508	363.115051	-4478.313477	328.826508	327.364319	-4527.978516	374.196747	271.893005	-4433.957520	225.903992	287.907074	-4489.514160	249.208084	333.648224	-4455.347168	153.175049	240.030426	-4434.679688	134.047546	280.834991	-4504.271973	167.397430	354.315765	-4127.840820	1029.193726	-4.983964	-3635.569092	1414.977905	378.229187
109	0.436000	-3940.358887	1602.281006	255.671310	-3885.497070	1593.199219	408.101166	-3949.449219	1596.204712	96.466988	-3802.722168	1510.601196	224.264847	-4005.085938	1414.824951	258.887695	-4078.688721	1473.638550	20.116350	-4180.859863	1378.849731	-4.444337	-4146.750977	1232.657104	-16.703449	-4124.698242	1098.595093	-8.708768	-3876.746826	1418.719727	511.983612	-3876.792725	1288.773804	564.952393	-3770.599365	1341.941406	493.322968	-3675.451172	1389.295776	419.081787	-3819.872070	1110.579102	336.319122	-3836.201660	1125.165405	125.831657	-4003.748535	1181.526611	245.118195	-4020.412354	1151.454956	192.721893	-4014.488037	1154.178833	299.782837	-4048.866455	1099.804321	247.707565	-3822.926514	844.844238	64.083221	-3764.806641	749.160034	82.873947	-3707.108154	899.967529	130.227509	-3661.870117	797.779968	142.900177	-3707.564941	644.378662	110.507385	-3619.936035	678.737549	169.555161	-3661.764404	478.819336	194.128525	-3658.230713	340.107239	204.007217	-3696.342285	401.951172	121.042061	-3678.575684	186.444977	161.954163	-3742.022461	158.461945	212.805618	-3573.233398	181.845169	214.301468	-3603.875732	147.447464	156.342773	-3516.922119	131.670853	254.695511	-3483.395020	142.200165	218.057281	-3542.139893	104.761444	136.197693	-3997.602539	867.297485	421.560791	-4035.199951	761.798279	401.805054	-3897.432129	802.263123	337.374146	-3945.918701	715.760681	321.632965	-4111.980469	635.469360	367.848846	-4035.943359	582.619324	319.131073	-4251.851562	468.071075	290.061523	-4353.120605	391.340942	276.127808	-4296.544434	500.298309	362.257568	-4468.407227	336.610474	326.914612	-4517.778320	381.744659	270.679871	-4424.800781	232.891556	288.974731	-4480.217773	257.392883	334.442261	-4446.424805	159.567276	242.203064	-4426.141113	140.744461	283.554474	-4495.306152	176.170273	356.493835	-4113.489746	1030.458130	-4.645471	-3622.240967	1415.777954	377.563507
